<?xml version="1.0" standalone="no"?>
<!DOCTYPE svg PUBLIC "-//W3C//DTD SVG 20010904//EN"
 "http://www.w3.org/TR/2001/REC-SVG-20010904/DTD/svg10.dtd">
<svg version="1.0" xmlns="http://www.w3.org/2000/svg"
 width="2048.000000pt" height="2048.000000pt" viewBox="0 0 2048.000000 2048.000000"
 preserveAspectRatio="xMidYMid meet">
<metadata>
Created by potrace 1.16, written by Peter Selinger 2001-2019
</metadata>
<g transform="translate(0.000000,2048.000000) scale(0.100000,-0.100000)"
fill="#000000" stroke="none">
<path d="M5726 1045 c10 -8 24 -15 31 -15 7 0 27 -8 46 -19 72 -40 102 -55
110 -53 4 1 7 -3 7 -10 0 -6 3 -9 6 -5 3 3 27 -5 52 -18 26 -13 52 -25 57 -26
6 -1 30 -13 54 -26 24 -12 52 -23 62 -23 11 0 19 -4 19 -10 0 -5 8 -10 18 -10
9 0 34 -9 55 -20 20 -11 42 -20 48 -20 6 0 17 -7 26 -16 9 -8 22 -13 29 -10 8
3 14 1 14 -5 0 -6 5 -7 10 -4 6 3 10 1 10 -5 0 -7 7 -10 15 -6 8 3 15 1 15 -4
0 -5 7 -6 17 -3 11 4 14 3 9 -6 -5 -8 -3 -11 5 -9 8 1 40 -10 71 -25 32 -16
62 -26 68 -22 5 3 10 1 10 -5 0 -6 4 -9 8 -6 5 3 21 -2 36 -10 16 -7 35 -14
44 -14 8 0 23 -6 31 -14 9 -8 27 -17 41 -19 14 -2 42 -11 62 -21 21 -9 42 -16
48 -16 6 0 24 -7 40 -15 16 -8 37 -16 47 -18 10 -1 23 -5 28 -9 11 -6 87 -29
118 -35 10 -2 30 -9 45 -17 15 -7 55 -19 90 -27 34 -7 62 -16 62 -19 0 -4 6
-7 13 -8 33 -3 52 -8 57 -14 6 -7 52 -19 83 -21 9 -1 17 -4 17 -8 0 -4 8 -6
18 -5 9 2 19 0 22 -4 5 -7 378 -102 490 -125 50 -10 77 -15 85 -16 6 -1 20 -5
33 -10 12 -5 73 -18 135 -29 61 -11 132 -24 157 -29 25 -5 63 -12 85 -15 23
-4 50 -8 62 -10 11 -3 38 -7 59 -10 22 -4 68 -11 104 -17 127 -20 475 -60 641
-74 35 -3 87 -7 114 -10 344 -32 1146 -33 1540 -1 200 16 524 50 585 61 14 3
50 7 80 10 72 8 391 60 435 71 6 1 48 9 95 18 47 8 94 17 105 20 11 2 67 14
125 26 58 11 119 25 135 30 17 6 93 25 170 44 219 54 256 65 273 78 13 11 14
11 8 0 -7 -11 -4 -12 12 -3 11 6 30 11 41 11 12 0 21 5 21 11 0 5 4 8 9 5 5
-3 25 1 44 9 19 8 37 11 41 8 3 -4 6 -1 6 6 0 7 4 10 9 7 5 -3 25 1 45 9 20 8
36 12 36 9 0 -4 6 -2 13 4 6 5 28 13 47 17 19 4 41 12 49 19 8 6 16 10 18 8 5
-4 57 10 78 22 11 6 25 11 30 12 27 3 135 38 135 44 0 7 24 14 84 26 11 3 25
9 31 14 7 5 15 7 18 3 4 -3 7 -1 7 5 0 7 11 12 25 12 14 0 25 4 25 9 0 5 18
11 39 15 22 3 41 11 43 16 2 6 13 12 26 13 12 0 22 5 22 10 0 5 7 7 15 3 8 -3
15 -2 15 2 0 4 10 9 22 9 13 1 24 7 26 13 2 5 10 10 18 10 9 0 25 5 37 12 12
7 31 13 42 15 10 2 22 7 25 11 3 4 14 9 25 10 11 2 23 9 27 15 4 7 8 8 8 4 0
-5 7 -1 16 7 8 9 19 14 24 11 5 -3 42 12 82 33 41 21 79 37 86 34 7 -2 12 1
12 8 0 6 5 8 10 5 6 -3 10 -1 10 5 0 6 4 9 8 6 5 -3 26 7 47 21 21 14 35 21
32 15 -6 -9 197 89 210 102 4 3 -2034 6 -4527 6 -3989 0 -4531 -2 -4514 -15z"/>
</g>
</svg>
